<svg id="Layer_1" enable-background="new 0 0 512 512" height="512" viewBox="0 0 512 512" width="512" xmlns="http://www.w3.org/2000/svg"><g><path d="m410.832 86.72c-13.048 0-23.663 10.639-23.663 23.717v291.126c0 13.078 10.615 23.717 23.663 23.717 13.098 0 23.753-10.639 23.753-23.717v-291.126c0-13.078-10.655-23.717-23.753-23.717z" fill="#20a3f5"/><path d="m256 86.72c-13.098 0-23.753 10.639-23.753 23.717v291.126c0 13.078 10.655 23.717 23.753 23.717s23.754-10.639 23.754-23.717v-291.126c0-13.078-10.656-23.717-23.754-23.717z" fill="#20a3f5"/><path d="m333.415 173.44c-13.047 0-23.661 10.639-23.661 23.717v117.687c0 13.078 10.614 23.717 23.661 23.717 13.098 0 23.754-10.639 23.754-23.717v-117.687c0-13.078-10.656-23.717-23.754-23.717z" fill="#0dcdfc"/><path d="m488.247 216.8c-13.047 0-23.662 10.639-23.662 23.717v30.966c0 13.078 10.615 23.717 23.662 23.717 13.098 0 23.753-10.639 23.753-23.717v-30.966c0-13.078-10.655-23.717-23.753-23.717z" fill="#0dcdfc"/><path d="m23.754 216.8c-13.098 0-23.754 10.639-23.754 23.717v30.966c0 13.078 10.656 23.717 23.754 23.717 13.047 0 23.661-10.639 23.661-23.717v-30.966c0-13.078-10.614-23.717-23.661-23.717z" fill="#0dcdfc"/><path d="m101.169 130.08c-13.098 0-23.754 10.639-23.754 23.717v204.406c0 13.078 10.656 23.717 23.754 23.717 13.048 0 23.663-10.64 23.663-23.717v-204.406c0-13.078-10.615-23.717-23.663-23.717z" fill="#20a3f5"/><path d="m178.585 0c-13.098 0-23.753 10.639-23.753 23.717v464.566c0 13.078 10.655 23.717 23.753 23.717 13.047 0 23.662-10.639 23.662-23.717v-464.566c0-13.078-10.615-23.717-23.662-23.717z" fill="#0dcdfc"/><path d="m410.832 425.28c13.098 0 23.753-10.639 23.753-23.717v-145.563h-47.416v145.563c0 13.078 10.615 23.717 23.663 23.717z" fill="#3378ed"/><path d="m256 425.28c13.098 0 23.754-10.639 23.754-23.717v-145.563h-47.507v145.563c0 13.078 10.655 23.717 23.753 23.717z" fill="#3378ed"/><g fill="#20a3f5"><path d="m333.415 338.56c13.098 0 23.754-10.639 23.754-23.717v-58.843h-47.415v58.843c0 13.078 10.614 23.717 23.661 23.717z"/><path d="m488.247 295.2c13.098 0 23.753-10.639 23.753-23.717v-15.483h-47.415v15.483c0 13.078 10.615 23.717 23.662 23.717z"/><path d="m23.754 295.2c13.047 0 23.661-10.639 23.661-23.717v-15.483h-47.415v15.483c0 13.078 10.656 23.717 23.754 23.717z"/></g><path d="m101.169 381.92c13.048 0 23.663-10.64 23.663-23.717v-102.203h-47.417v102.203c0 13.078 10.656 23.717 23.754 23.717z" fill="#3378ed"/><path d="m178.585 512c13.047 0 23.662-10.639 23.662-23.717v-232.283h-47.415v232.283c0 13.078 10.655 23.717 23.753 23.717z" fill="#20a3f5"/></g></svg>